<mxfile host="app.diagrams.net" modified="2023-10-15T14:39:58.597Z" agent="Mozilla/5.0 (Windows NT 10.0; Win64; x64) AppleWebKit/537.36 (KHTML, like Gecko) Chrome/118.0.0.0 Safari/537.36" version="22.0.4" etag="oN1QjHd5fL3odn_JmwAz" type="github">
  <diagram name="PÃ¡gina-1" id="isV0oZyiH_nVLni_kfK7">
    <mxGraphModel>
      <root>
        <mxCell id="0" />
        <mxCell id="1" parent="0" />
      </root>
    </mxGraphModel>
  </diagram>
</mxfile>
